<svg xmlns="http://www.w3.org/2000/svg" viewBox="0 0 215 215" role="img" aria-labelledby="socratica-asterisk-title">
  <title id="socratica-asterisk-title">Socratica asterisk</title>
  <path fill="currentColor" d="M107.817 87c-4.54 0-7.285-2.955-7.074-7.551l1.056-21.56-19.11 13.133c-1.16.875-2.639 1.313-4.328 1.313-3.378 0-6.651-2.736-6.651-7.332 0-2.846 1.267-4.706 4.012-6.348l20.165-11.053-20.165-11.053c-2.745-1.533-4.012-3.502-4.012-6.348 0-4.487 3.273-7.223 6.651-7.223 1.69 0 3.167.438 4.329 1.204l19.109 12.804-1.056-22.435C100.532 9.955 103.277 7 107.817 7c4.328 0 6.862 2.736 6.756 7.551l-1.161 22.435 18.898-12.804c1.161-.766 2.64-1.204 4.329-1.204 3.378 0 6.651 2.736 6.651 7.223 0 2.846-1.267 4.815-4.012 6.348l-20.165 11.053 20.165 11.053c2.745 1.642 4.012 3.502 4.012 6.348 0 4.596-3.273 7.332-6.651 7.332-1.689 0-3.168-.438-4.329-1.313l-18.898-13.133 1.161 21.56c.212 4.815-2.428 7.551-6.756 7.551M171.467 197.25c-4.54 0-7.285-2.955-7.074-7.551l1.056-21.56-19.109 13.133c-1.162.875-2.64 1.313-4.329 1.313-3.378 0-6.651-2.736-6.651-7.332 0-2.846 1.267-4.706 4.012-6.348l20.165-11.053-20.165-11.053c-2.745-1.533-4.012-3.502-4.012-6.348 0-4.487 3.273-7.223 6.651-7.223 1.689 0 3.167.438 4.329 1.204l19.109 12.804-1.056-22.435c-.211-4.596 2.534-7.551 7.074-7.551 4.328 0 6.862 2.736 6.757 7.551l-1.162 22.435 18.898-12.804c1.162-.766 2.64-1.204 4.329-1.204 3.378 0 6.651 2.736 6.651 7.223 0 2.846-1.267 4.815-4.012 6.348l-20.165 11.053 20.165 11.053c2.745 1.642 4.012 3.502 4.012 6.348 0 4.596-3.273 7.332-6.651 7.332-1.689 0-3.167-.438-4.329-1.313l-18.898-13.133 1.162 21.56c.211 4.815-2.429 7.551-6.757 7.551M44.167 197.25c-4.54 0-7.285-2.955-7.074-7.551l1.056-21.56-19.11 13.133c-1.16.875-2.639 1.313-4.328 1.313-3.378 0-6.651-2.736-6.651-7.332 0-2.846 1.267-4.706 4.012-6.348l20.165-11.053-20.165-11.053c-2.745-1.533-4.012-3.502-4.012-6.348 0-4.487 3.273-7.223 6.651-7.223 1.69 0 3.167.438 4.329 1.204l19.109 12.804-1.056-22.435c-.211-4.596 2.534-7.551 7.074-7.551 4.328 0 6.862 2.736 6.757 7.551l-1.162 22.435 18.898-12.804c1.162-.766 2.64-1.204 4.329-1.204 3.378 0 6.651 2.736 6.651 7.223 0 2.846-1.267 4.815-4.012 6.348l-20.165 11.053 20.165 11.053c2.745 1.642 4.012 3.502 4.012 6.348 0 4.596-3.273 7.332-6.651 7.332-1.69 0-3.167-.438-4.329-1.313l-18.898-13.133 1.162 21.56c.21 4.815-2.429 7.551-6.757 7.551"/>
  <path fill="none" stroke="currentColor" stroke-linecap="round" stroke-width="19" d="M126.117 187.615c-11.869 5.185-24.366 5.185-36.234 0M40.385 101.883a70 70 0 0 1 18.117-31.38M157.497 70.503a70 70 0 0 1 18.118 31.38"/>
</svg>
